<svg width="1200" height="600" version="1.1" viewBox="0 0 1200 600.00002" xmlns="http://www.w3.org/2000/svg">
 <g transform="translate(0,-522.51965)">
  <g stroke-linecap="round" stroke-linejoin="round">
   <path d="m0 522.51965h1200v600.00005h-1200z" fill="#fff" stroke-width="8.34402" style="paint-order:fill markers stroke"/>
   <path d="m0 1042.5198h1200v79.9999h-1200z" fill="#005ca2" stroke-width="3.0468" style="paint-order:fill markers stroke"/>
   <path d="m0 602.51957h1200v-79.99992h-1200z" fill="#005ca2" stroke-width="3.0468" style="paint-order:fill markers stroke"/>
  </g>
  <g fill="#da251c">
   <path d="m0 1122.5197 75-80 75 80z"/>
   <path d="m150 1122.5197 75-80 75 80z"/>
   <path d="m300 1122.5197 75-80 75 80z"/>
   <path d="m450 1122.5197 75-80 75 80z"/>
   <path d="m600 1122.5197 75-80 75 80z"/>
   <path d="m750 1122.5197 75-80 75 80z"/>
   <path d="m900 1122.5197 75-80 75 80z"/>
   <path d="m1050 1122.5197 75-80 75 80z"/>
   <path d="m0 522.51965 75 80 75-80z"/>
   <path d="m150 522.51965 75 80 75-80z"/>
   <path d="m300 522.51965 75 80 75-80z"/>
   <path d="m450 522.51965 75 80 75-80z"/>
   <path d="m600 522.51965 75 80 75-80z"/>
   <path d="m750 522.51965 75 80 75-80z"/>
   <path d="m900 522.51965 75 80 75-80z"/>
   <path d="m1050 522.51965 75 80 75-80z"/>
  </g>
  <g transform="matrix(.47879778 0 0 .47879778 288.46476 776.25792)" stroke-linecap="round">
   <g stroke="#000">
    <path d="m955.44063 179.22072c11.7687-26.96655 11.78911-70.24176-3.9239-110.842961-12.78652-33.039118-46.8034-56.665701-68.61203-134.396222-14.84977-52.929257 1.98274-110.380347 13.84743-150.239997l-117.37965-64.70041c-43.81267 34.12626-96.20032 46.28167-128.71106 47.37618-32.51074-1.09451-84.8984-13.24992-128.71106-47.37618l-117.37965 64.70041c11.86469 39.85965 28.69719 97.31074 13.84743 150.239997-21.80863 77.730521-55.82551 101.357104-68.61203 134.396222-15.71301 40.601201-15.6926 83.876411-3.92391 110.842961 68.48731 156.9309 211.03749 86.81575 304.77922 150.76082 93.74173-63.94507 236.29191 6.17008 304.77921-150.76082z" fill="#005ca2" stroke-width="13"/>
    <path d="m521.95074-280.95944-117.38079 64.70098c11.86469 39.85965 28.69758 97.31111 13.84781 150.240375-13.27597 47.317418-31.05751 74.5481584-45.83811 96.095623h278.08215v-263.660038c-32.51074-1.09451-84.8984-13.25068-128.71106-47.37694zm128.71106 311.036978v299.904382c93.74173-63.94507 236.2919 6.16932 304.77921-150.76158 11.7687-26.96655 11.78911-70.24063-3.9239-110.841825-5.00296-12.927118-13.27295-24.451276-22.77317-38.300977z" fill="#da251c" fill-rule="evenodd" stroke-linejoin="bevel" stroke-width="9.99999"/>
    <path d="m955.44063 179.22072c11.7687-26.96655 11.78911-70.24176-3.9239-110.842961-12.78652-33.039118-46.8034-56.665701-68.61203-134.396222-14.84977-52.929257 1.98274-110.380347 13.84743-150.239997l-117.37965-64.70041c-43.81267 34.12626-96.20032 46.28167-128.71106 47.37618-32.51074-1.09451-84.8984-13.24992-128.71106-47.37618l-117.37965 64.70041c11.86469 39.85965 28.69719 97.31074 13.84743 150.239997-21.80863 77.730521-55.82551 101.357104-68.61203 134.396222-15.71301 40.601201-15.6926 83.876411-3.92391 110.842961 68.48731 156.9309 211.03749 86.81575 304.77922 150.76082 93.74173-63.94507 236.29191 6.17008 304.77921-150.76082z" fill="none" stroke-width="13"/>
    <path d="m779.28592 40.07779c3.8e-4 66.57751-29.58689 155.54986-128.6245 155.54948-99.03761 3.8e-4 -128.62413-88.97197-128.62375-155.54948 3.8e-4 -66.577134 67.08737-153.85928 128.62413-153.85928 63.03685 0 128.62375 87.282146 128.62412 153.85928z" fill="#006d34" fill-rule="evenodd" stroke-linejoin="round" stroke-width="9.99999"/>
   </g>
   <g>
    <path d="m779.28592 40.07779c3.8e-4 66.57751-29.58689 155.54986-128.6245 155.54948-99.03761 3.8e-4 -128.62413-88.97197-128.62375-155.54948 3.8e-4 -66.577134 67.08737-153.85928 128.62413-153.85928 63.03685 0 128.62375 87.282146 128.62412 153.85928z" fill="none" stroke="#f5b900" stroke-width="6.99999"/>
    <path transform="matrix(6.3650197,-2.7971494,2.7971494,6.3650197,6086.347,-10336.366)" d="m-1321.2885 1014.619 2.6766-2.5095-0.033 3.6688 3.6671 0.1181-2.6174 2.5711 2.5096 2.6765-3.6689-0.033-0.1181 3.6671-2.5711-2.6174-2.6765 2.5095 0.033-3.6688-3.6671-0.1181 2.6174-2.5711-2.5095-2.6765 3.6688 0.033 0.1181-3.6671z" fill="#f5b900" fill-rule="evenodd" stroke="#000" stroke-width=".287666"/>
    <path d="m955.44063 179.22072c11.7687-26.96655 11.78911-70.24176-3.9239-110.842961-12.78652-33.039118-46.8034-56.665701-68.61203-134.396222-14.84977-52.929257 1.98274-110.380347 13.84743-150.239997l-117.37965-64.70041c-43.81267 34.12626-96.20032 46.28167-128.71106 47.37618-32.51074-1.09451-84.8984-13.24992-128.71106-47.37618l-117.37965 64.70041c11.86469 39.85965 28.69719 97.31074 13.84743 150.239997-21.80863 77.730521-55.82551 101.357104-68.61203 134.396222-15.71301 40.601201-15.6926 83.876411-3.92391 110.842961 68.48731 156.9309 211.03749 86.81575 304.77922 150.76082 93.74173-63.94507 236.29191 6.17008 304.77921-150.76082z" fill="none" stroke="#f5b900" stroke-width="9"/>
   </g>
   <path d="m650.66066-114.08158v-119.50092c-32.51074-1.09451-84.89839-13.25068-128.71105-47.37694l-117.3789 64.70098c11.86469 39.85965 28.69757 97.31111 13.84781 150.240375-13.27597 47.317418-31.0594 74.5481584-45.84 96.095623h148.58494m129.4972 165.907282v133.9971c93.74174-63.94507 236.29191 6.16932 304.77922-150.76158 11.76869-26.96655 11.7891-70.24063-3.92391-110.841825-5.00296-12.927118-13.27294-24.451276-22.77354-38.300977h-149.48485" fill="none" stroke="#f5b900" stroke-linejoin="round" stroke-width="6"/>
   <g stroke="#000">
    <g>
     <path d="m793.13449-191.01009a36.623761 36.623761 0 0 0-36.62287 36.62287 36.623761 36.623761 0 0 0 36.62287 36.62513 36.623761 36.623761 0 0 0 26.43364-11.33782 25.67617 25.67617 0 0 1-4.43339 0.39042 25.67617 25.67617 0 0 1-25.67584-25.67773 25.67617 25.67617 0 0 1 25.67584-25.67584 25.67617 25.67617 0 0 1 4.50369 0.42179 36.623761 36.623761 0 0 0-26.50394-11.36882z" fill="#d8d8d6" fill-rule="evenodd" stroke-width="2"/>
     <path d="m706.8628 22.036215c44.83503-78.783119-37.42526-119.889261-80.94009-96.314457-25.69399 13.919622-30.31522 40.262551-30.33071 62.373544 0 13.3080942 2.26469 24.614173-1.99937 33.879685-5.89002 12.799748-26.22123 7.799055-33.10073 1.475528-13.36252-16.5671818-25.63767 2.531905-33.41102 6.717732 4.82457 3.289701 8.1532 10.138205 13.93398 12.389291 9.88347 3.848315 7.6218-6.581291 14.50432-5.936882 9.0531 0.848126 17.01165 10.874457 30.11868 7.893922 34.95042-7.948347 25.32548-36.5586148 27.57392-63.73682 1.42374-17.206677 6.72604-33.172158 21.64724-39.903118 27.72473-12.506457 82.38388-5.253166 72.00378 81.161575z" fill="#f5b900" stroke-width="1.5"/>
     <g stroke-width=".500001">
      <circle cx="540.95795" cy="25.077585" r="1.6793786" fill="none"/>
      <circle cx="540.95795" cy="25.077585" r=".76137364" fill-rule="evenodd"/>
      <path d="m536.89215 26.279113c1.73481-2.670236 4.14917-3.886488 7.999-2.033008-2.31685 3.707717-5.16624 2.796473-7.999 2.033008z" fill="none"/>
      <circle transform="scale(1,-1)" cx="541.82996" cy="-36.367264" r="1.6793786" fill="none"/>
      <circle transform="scale(1,-1)" cx="541.82996" cy="-36.367264" r=".76137364" fill-rule="evenodd"/>
      <path d="m537.76522 35.167806c1.73481 2.670236 4.14917 3.886488 7.999 2.033008-2.31685-3.707717-5.16624-2.796473-7.999-2.033008z" fill="none"/>
     </g>
    </g>
    <path d="m643.46822-46.303313c-0.42784 0-0.84812-3e-3 -1.25782 0-15.87742 0.652346-26.02092 17.340851-20.16001 30.927874l-9.14456 5.9826146c-8.02281 5.2493859-6.72756 17.9780789 0.16252 12.0759686l13.42979-11.5056379c9.55843 9.29688199 23.69348-0.7060158 27.57203-0.037795 6.42558 1.1111811 6.38627 8.384882 5.17985 13.537134-7.24951 30.9645357-46.75465 34.6174487-51.21298 55.6289767-1.76542 8.319496 0.95471 21.932221 10.14652 28.187717 10.76863 7.328126 26.93329 3.403464 28.3869 19.320191 2.4291 26.60485-2.58444 69.45562-52.0509 70.81436 12.50986 7.97027 42.56353 15.76781 75.20315 11.50904 40.69153-5.8783 57.60378-23.9331 66.13455-33.35471-6.6085-2.4136-10.00101 4.54564-26.59162 9.63099-15.18009 4.65298-31.87805 7.20076-45.57808-2.21291-8.28094-5.69008-9.22809-16.30148-8.84598-29.0177 0.37908-12.61758 2.03036-27.33619 8.17398-34.41222 10.52825-12.126616 18.08958-8.791561 28.39257-10.507466 9.09203-1.514079 16.43187-8.226142 26.57423-9.355465 37.38709-4.163528 45.08448 4.553953 54.71471-9.24548-18.92674-3.726615-32.56252-3.992693-37.07603-7.881827-7.46192-6.429733-13.69852-15.220158-24.58016-18.099402-12.2914-3.252284-33.36491 3.344504-38.80063-3.256063-6.20371-7.532977 14.97676-24.654237 9.74022-55.261607-3.57429-20.892095-25.24384-33.22167-38.51376-33.482457z" fill="#f5b900" stroke-linejoin="round" stroke-width="1.5"/>
    <ellipse transform="rotate(32.196198)" cx="523.45514" cy="-361.55316" rx="3.0625" ry="3.9865928" fill="none" stroke-width=".500001"/>
    <ellipse transform="rotate(32.196198)" cx="523.45514" cy="-361.55316" rx="2.2812061" ry="2.9695489" fill-rule="evenodd" stroke-width=".3"/>
   </g>
   <g fill="none" stroke="#000">
    <path d="m635.66973-29.77884c-0.0831 2.178897 0.92674 3.01833 1.86557 3.945448" stroke-width=".3"/>
    <path d="m634.05171-28.766683c-0.61719 2.738646 0.62476 3.538016 1.87956 4.323402" stroke-width=".3"/>
    <path d="m630.49329-23.938714c0.85455-4.793953 2.85543-8.146772 7.45285-8.234457" stroke-width=".999999"/>
    <path d="m640.26186-32.410903c1.17694 11.265638-6.06463 9.188409-9.94356 12.440693" stroke-width=".999999"/>
   </g>
   <path d="m635.63744-24.81852c-0.92649-0.6157-1.31316-1.09179-1.50109-1.84827-0.10333-0.41591-0.11214-1.01871-0.0231-1.58219 0.068-0.43064 0.0659-0.42553 0.25401-0.61185 0.28601-0.28329 0.72381-0.5667 1.05185-0.68092l0.0907-0.0316 0.0133 0.33485c0.0215 0.53879 0.11254 0.98169 0.29606 1.43971 0.22683 0.56609 0.53115 0.99293 1.18463 1.66158l0.32919 0.33682-0.14297 0.183c-0.19319 0.24727-0.54477 0.58043-0.77035 0.72998-0.18153 0.12035-0.43658 0.25955-0.47555 0.25955-0.0108 0-0.14881-0.0858-0.30663-0.19069z" fill="#ac9393" fill-rule="evenodd" stroke="#000" stroke-linejoin="round" stroke-width=".3" style="paint-order:fill markers stroke"/>
   <g fill="#d8d8d6" stroke="#000" stroke-width="1.5">
    <path d="m456.22778 193.95143c-6.35981 0.19276-12.14287-1.01594-19.56284 1.7503l12.25021 11.62469c6.97436 0.43049 11.10047-0.65764 15.68768-1.50009"/>
    <path d="m496.4102 239.11792c-7.54129 5.46897-11.08044 3.62608-15.87439 0.61417-4.67112-2.93518-9.2262-7.21927-11.87981-8.92271 4.06602-1.28995 8.40265-2.2953 17.3246 1.50237"/>
    <path d="m396.61972 178.30645c1.99748-13.04693 11.33858-26.39811 28.28447-26.86979-2.46425-8.00731 0.90557-14.29871-8.66192-24.39534 34.433-5.82123 30.56504 36.38589 48.13795 45.33619 37.45285 19.07527 58.2206-13.54658 88.15673 70.09927 7.55489-2.18003 14.736 3.37512 4.06601 7.77789 2.10482 8.05229-7.46305 7.01103-8.13165 0.88404-9.06218 1.43281-18.55862 1.00459-27.39553-3.81128-60.42066 3.68542-63.69865-99.9995-124.45606-69.02098z"/>
   </g>
   <g fill="none" stroke="#000" stroke-width="1.5">
    <path d="m521.07578 247.32743c-4.53506-16.70665 3.71187-30.97134 17.37298-37.33757"/>
    <path d="m508.11124 246.38557c-3.29952-2.39471-4.46853-8.36825 1.55717-13.63162-3.21676-8.35918 3.21751-13.82476 6.80579-13.52353-2.68913-4.47609 1.61386-11.83445 7.95515-10.87181 0.53178-5.05172 3.58829-7.28126 8.1207-7.86179"/>
    <ellipse cx="534.37347" cy="228.55615" rx="5.0823298" ry="6.7617087"/>
    <ellipse cx="534.10773" cy="228.46756" rx="3.0080197" ry="4.0019741"/>
    <path d="m495.29865 241.45745c-2.3093-4.38426-0.38589-13.74199 7.74085-16.21645-5.30306-5.43987 2.12333-13.70494 6.0102-11.31401-4.59175-7.24687 3.27043-12.62967 7.15956-10.87181-1.77071-7.87351 4.75351-11.10728 9.9772-10.24479"/>
    <path d="m485.16989 234.17241c-2.49638-11.37298 3.91559-12.51478 6.46715-12.64404-3.52025-9.18311 3.22998-13.79792 8.48542-13.16976-4.62577-7.53487 3.93335-13.82476 8.04321-11.6674-2.07383-5.71956 2.97298-12.04233 9.66387-10.4795"/>
    <path d="m474.40315 222.94003c0.53216-6.52271 5.74942-6.10167 8.13014-5.74262-4.44661-8.17852 2.69972-12.5537 6.9823-11.31363-4.19074-7.37122 0.1474-13.63352 8.30854-12.10923-4.26067-7.63843 0.54463-11.53399 6.8587-12.27137"/>
    <path d="m467.12567 213.66204c0.39269-5.63792 4.88768-7.47893 9.22016-7.8667-2.65361-10.00177 5.12315-11.30344 8.30853-10.60649-2.69971-7.25972 4.65298-9.40687 5.74564-8.92725-0.60321-2.61165-0.15118-4.84686 2.53568-6.28384"/>
    <path d="m461.13398 205.51943c-1.40107-4.76863 3.46016-10.61896 8.49449-8.5629-5.09518-6.76989 2.62262-10.80567 5.65682-8.8388-2.56327-7.74199 5.91118-9.51988 10.26255-9.07729"/>
    <path d="m454.45707 196.60844c-0.51968-6.27742 3.85625-10.79471 10.5755-9.37474-1.71969-6.53027 2.35124-11.0744 9.94847-10.56567"/>
    <path d="m448.06665 188.91748c0.1096-3.36983 1.92-3.97833 3.88459-4.33512-1.13159-4.8155 3.29462-8.29947 7.42413-7.60139-0.21921-2.61316 1.94079-3.86683 5.00485-4.60346"/>
    <path d="m474.30035 235.17852 8.47067-3.20429"/>
    <path d="m478.05342 238.05247 8.05568-3.06898"/>
    <path d="m482.68447 241.02015 7.76051-2.65474"/>
    <path d="m441.67093 200.45222c4.9508-0.29103 9.7697-0.79597 13.89581-2.40681"/>
    <path d="m445.73846 204.31187c4.56037-0.0907 8.96579-0.59301 13.02727-2.01109"/>
   </g>
   <path d="m489.85272 181.7016c0-4.6371-3.21675-9.15401-7.68755-13.62519 31.44793-0.86136 35.54494 15.51836 36.87496 21.56258" fill="#d8d8d6" stroke="#000" stroke-width="1.5"/>
   <g fill="none" stroke="#000" stroke-width="1.5">
    <path d="m490.3006 168.26538c3.77197 3.47301 5.5903 7.49556 5.59105 12.0291"/>
    <path d="m498.19187 169.46425c3.24851 4.07471 4.73122 8.14942 5.27509 12.22412"/>
    <path d="m511.08913 183.14916c-0.5314-3.67899-2.96126-7.3576-5.32648-11.0366"/>
    <path d="m399.02879 169.73902c25.32094-9.14494 35.28831-1.30318 45.32409 6.46261"/>
    <path d="m405.75143 159.53808c7.72573-1.05147 15.63288-1.50615 25.16372 3.35092"/>
    <path d="m424.90381 151.43666c7.41657 9.55011 17.00976 13.13499 24.82394 24.07748"/>
    <path d="m423.81304 145.1993c6.63383 0.8829 10.60951 6.49285 14.28964 12.62703"/>
    <path d="m421.83408 135.17335c17.0691 0.59906 20.94463 20.9091 31.33153 36.02797"/>
    <path d="m879.09229 126.21549c-3.28479 3.70092-5.64699 7.18073-7.00498 10.41865"/>
    <path d="m882.70741 127.29606-7.88674 8.47068"/>
    <path d="m884.04309 130.825c-3.45751 3.54029-6.75968 6.14476-9.89291 7.73027"/>
    <path d="m874.7772 126.29978c-3.07162 4.37669-4.03729 7.38595-4.71874 10.21039"/>
    <path d="m858.5377 143.74078c-3.07124 4.37707-4.03691 7.38633-4.71874 10.21078"/>
    <path d="m862.59761 139.38068c-3.07145 4.37693-4.0371 7.3861-4.71882 10.21064"/>
    <path d="m866.6574 135.02039c-3.07135 4.37684-4.03709 7.3861-4.71872 10.21054"/>
    <path d="m870.71726 130.66003c-3.07142 4.37691-4.03707 7.38608-4.71879 10.21062"/>
   </g>
   <g fill="#f3ba03" stroke="#000" stroke-width="1.5">
    <path d="m871.21878 133.44611c1.33379 1.33077 1.60025 8.07685-2.65739 8.22311-3.3668-2.61089 0.7971-7.92566 2.65739-8.22311z"/>
    <path d="m854.92032 150.95137c1.33342 1.33039 1.60025 8.07647-2.65777 8.22311-3.3668-2.61089 0.79711-7.92566 2.65777-8.22311z"/>
    <path d="m867.14425 137.82249c1.33372 1.33049 1.60025 8.07662-2.65772 8.22305l-1e-4 -9e-5c-3.36645-2.61072 0.79741-7.92555 2.65782-8.22296"/>
    <path d="m863.06956 142.19878c1.33373 1.33048 1.60025 8.07662-2.65772 8.22304-1.9e-4 1e-5 -2.8e-4 -8e-5 -3.8e-4 -1.7e-4 -3.36599-2.61083 0.79769-7.92547 2.6581-8.22287"/>
    <path d="m858.99479 146.57515c1.33372 1.33049 1.60025 8.07662-2.65773 8.22305-9e-5 -9e-5 -2.9e-4 -2.7e-4 -3.8e-4 -3.6e-4 -3.36581-2.61084 0.79779-7.92538 2.65811-8.22269"/>
   </g>
   <g fill="none" stroke="#000" stroke-width="1.5">
    <path d="m884.26684 135.13518c-4.1469 3.37587-7.07943 4.55357-9.84832 5.43458"/>
    <path d="m868.02772 152.57656c-4.1469 3.3755-7.07981 4.55358-9.84869 5.43459"/>
    <path d="m872.08714 148.21621c-4.14685 3.37563-7.07953 4.55333-9.84829 5.43467"/>
    <path d="m876.14693 143.85592c-4.14676 3.37554-7.07953 4.55334-9.8482 5.43457"/>
    <path d="m880.20679 139.49556c-4.14683 3.37561-7.0795 4.55331-9.84826 5.43464"/>
   </g>
   <g fill="#f3ba03" stroke="#000" stroke-width="1.5">
    <path d="m877.39188 139.19401c-1.42186-1.23553-8.16983-1.02047-8.0126 3.23679 2.84409 3.17216 7.84857-1.35987 8.0126-3.23679z"/>
    <path d="m861.09342 156.69889c-1.42224-1.23552-8.1702-1.02047-8.01298 3.23717 2.8441 3.17216 7.84895-1.36025 8.01298-3.23717z"/>
    <path d="m873.31714 143.57017c-1.42217-1.23549-8.17014-1.02044-8.01267 3.23713l1e-4 9e-5c2.84405 3.17179 7.84855-1.36035 8.01257-3.23722"/>
    <path d="m869.24246 147.94645c-1.42218-1.23549-8.17015-1.02044-8.01268 3.23714 1e-5 1.8e-4 1.1e-4 2.7e-4 2e-4 3.6e-4 2.84413 3.17132 7.84845-1.36062 8.01248-3.2375"/>
    <path d="m865.16768 152.32283c-1.42218-1.23549-8.17015-1.02044-8.01268 3.23714 1e-4 9e-5 3e-4 2.7e-4 3.9e-4 3.6e-4 2.84413 3.17112 7.84835-1.36072 8.01229-3.2375"/>
    <path d="m874.82067 135.76674c-1.81153-0.51818-7.83383 2.53455-5.88889 6.32466 3.91937 1.66979 6.53481-4.55471 5.88889-6.32466z"/>
    <path d="m870.76107 140.1268c-1.81152-0.5178-7.83382 2.53455-5.88888 6.32466 3.91937 1.6698 6.53481-4.55471 5.88888-6.32466"/>
    <path d="m866.70148 144.48686c-1.81152-0.51817-7.83382 2.53455-5.88888 6.32504h3.8e-4c3.91899 1.66942 6.53443-4.55508 5.8885-6.32504"/>
    <path d="m862.64189 148.8473c-1.81152-0.51817-7.83382 2.53418-5.88926 6.32466 3.8e-4 0 3.8e-4 0 7.6e-4 3.8e-4 3.91899 1.66866 6.53405-4.55546 5.8885-6.32504"/>
    <path d="m858.58193 153.20737c-1.81153-0.51818-7.83383 2.53455-5.88889 6.32466 3.91937 1.66979 6.53481-4.55471 5.88889-6.32466z"/>
   </g>
   <g fill="none" stroke="#000" stroke-width="1.5">
    <path d="m843.07188 101.54425c-2.21518 4.42469-3.59622 8.39735-4.0698 11.87641"/>
    <path d="m846.84347 101.65234-5.42589 10.22325"/>
    <path d="m849.04693 104.71527c-2.42343 4.31433-4.93908 7.68491-7.55527 10.02709"/>
    <path d="m838.92536 102.74236c-1.83421 5.02261-1.98803 8.17927-1.91509 11.08384"/>
    <path d="m827.75345 123.79206c-1.83382 5.02299-1.98765 8.17965-1.91508 11.08422"/>
    <path d="m830.54628 118.52973c-1.83396 5.02274-1.98787 8.1793-1.91532 11.08404"/>
    <path d="m833.33921 113.26726c-1.83389 5.02263-1.98787 8.1793-1.91525 11.08392"/>
    <path d="m836.13219 108.00471c-1.83393 5.02271-1.98785 8.17927-1.9153 11.08401"/>
   </g>
   <g fill="#f3ba03" stroke="#000" stroke-width="1.5">
    <path d="m837.33796 110.56598c1.63275 0.94035 3.63628 7.38746-0.43843 8.63093-3.92806-1.65052-1.28164-7.8618 0.43843-8.63093z"/>
    <path d="m826.12561 131.69316c1.63238 0.93997 3.63591 7.38709-0.4388 8.63093-3.92807-1.65052-1.28164-7.86179 0.4388-8.63093z"/>
    <path d="m834.53478 115.84791c1.63263 0.93995 3.6361 7.38724-0.43888 8.63072l-1.2e-4 -6e-5c-3.92745-1.65046-1.28105-7.86189 0.439-8.63066"/>
    <path d="m831.7316 121.12968c1.63263 0.93995 3.6361 7.38724-0.43888 8.63072-1.8e-4 5e-5 -3e-4 -1e-5 -4.2e-4 -7e-5 -3.92703-1.65069-1.28075-7.86188 0.4393-8.63065"/>
    <path d="m828.92836 126.41156c1.63263 0.93996 3.6361 7.38724-0.43889 8.63073-1.1e-4 -7e-5 -3.5e-4 -1.9e-4 -4.6e-4 -2.5e-4 -3.92685-1.65074-1.28064-7.86182 0.43935-8.63048"/>
   </g>
   <g fill="none" stroke="#000" stroke-width="1.5">
    <path d="m850.37846 108.82059c-3.13172 4.33399-5.65946 6.23056-8.10595 7.7983"/>
    <path d="m839.20693 129.87067c-3.13209 4.33361-5.65984 6.23093-8.10671 7.7983"/>
    <path d="m841.99954 124.60811c-3.13187 4.3339-5.65981 6.2305-8.10612 7.79841"/>
    <path d="m844.79248 119.34564c-3.13181 4.33379-5.65982 6.23051-8.10606 7.7983"/>
    <path d="m847.58545 114.0831c-3.13185 4.33386-5.65979 6.23046-8.1061 7.79837"/>
   </g>
   <g fill="#f3ba03" stroke="#000" stroke-width="1.5">
    <path d="m844.78854 114.5205c-1.69323-0.82545-8.15584 1.12894-6.90217 5.20025 3.56825 2.32781 7.22948-3.34488 6.90217-5.20025z"/>
    <path d="m833.57581 135.6473c-1.6936-0.82545-8.15584 1.12895-6.90217 5.20063 3.56825 2.32819 7.22948-3.34526 6.90217-5.20063z"/>
    <path d="m841.98517 119.80205c-1.69348-0.82531-8.15587 1.12892-6.90182 5.20066l1.2e-4 7e-5c3.56806 2.32761 7.22903-3.34536 6.9017-5.20073"/>
    <path d="m839.18199 125.08382c-1.69348-0.82531-8.15587 1.12892-6.90182 5.20066 6e-5 1.8e-4 1.7e-4 2.5e-4 2.9e-4 3.1e-4 3.56802 2.32714 7.22886-3.3456 6.90153-5.20097"/>
    <path d="m836.37875 130.3657c-1.69349-0.8253-8.15587 1.12892-6.90182 5.20067 1.2e-4 6e-5 3.5e-4 1.9e-4 4.7e-4 2.5e-4 3.56796 2.32696 7.22874-3.34566 6.90135-5.20092"/>
    <path d="m841.41758 111.87559c-1.88372-0.0378-6.91087 4.47571-4.05128 7.63313 4.21796 0.59868 5.13336-6.09071 4.05128-7.63313z"/>
    <path d="m838.62489 117.13782c-1.88372-0.0378-6.91087 4.47572-4.05128 7.63314 4.21795 0.59867 5.13335-6.09071 4.05128-7.63314"/>
    <path d="m835.83219 122.39968c-1.88409-0.0378-6.91086 4.47572-4.05127 7.63389h3.7e-4c4.21758 0.59792 5.13298-6.09109 4.0509-7.63389"/>
    <path d="m833.0395 127.6623c-1.88409-0.0378-6.91124 4.47533-4.05165 7.63351h7.5e-4c4.2172 0.59754 5.13222-6.09109 4.0509-7.63351"/>
    <path d="m830.24643 132.92453c-1.8841-0.0378-6.91125 4.4761-4.05128 7.63351 4.21796 0.5983 5.13298-6.09071 4.05128-7.63351z"/>
   </g>
   <g fill="none" stroke="#000" stroke-width="1.5">
    <path d="m916.43062 176.11848c-4.89298 0.7389-8.93594 1.89884-12.05216 3.5161"/>
    <path d="m918.51503 179.26343-11.48183 1.4555"/>
    <path d="m917.28101 182.82941c-4.92283 0.50495-9.1268 0.39043-12.54841-0.39836"/>
    <path d="m913.0623 173.4199c-5.16208 1.39465-7.8308 3.0875-10.16277 4.82041"/>
    <path d="m889.4206 176.41593c-5.16208 1.39503-7.8308 3.0875-10.16315 4.82041"/>
    <path d="m895.331 175.6669c-5.16197 1.39476-7.83069 3.08754-10.1631 4.82035"/>
    <path d="m901.24141 174.91786c-5.16184 1.39474-7.83069 3.08755-10.16297 4.82034"/>
    <path d="m907.15192 174.16881c-5.16194 1.39475-7.83065 3.08754-10.16306 4.82035"/>
   </g>
   <g fill="#f3ba03" stroke="#000" stroke-width="1.5">
    <path d="m905.7527 176.62985c0.17386 1.87616-3.94318 7.22835-7.30696 4.61405-0.91389-4.16126 5.68781-5.57707 7.30696-4.61405z"/>
    <path d="m882.02444 179.63722c0.17386 1.87578-3.9428 7.22797-7.30733 4.61367-0.91352-4.16126 5.68781-5.57669 7.30733-4.61367z"/>
    <path d="m899.82066 177.3818c0.17233 1.87598-3.94315 7.22801-7.30724 4.6137l-2e-5 -1.3e-4c-0.91371-4.16101 5.68792-5.57654 7.30726-4.61357"/>
    <path d="m893.88857 178.13359c0.17232 1.87598-3.94315 7.22801-7.30725 4.61369-1.5e-4 -1.1e-4 -1.6e-4 -2.4e-4 -1.8e-4 -3.7e-4 -0.91328-4.1608 5.68809-5.5763 7.30743-4.61332"/>
    <path d="m887.95634 178.88539c0.17233 1.87598-3.94315 7.22801-7.30724 4.6137-2e-5 -1.3e-4 -5e-5 -4e-4 -7e-5 -5.3e-4 -0.91313-4.16068 5.68811-5.57616 7.30731-4.61317"/>
   </g>
   <g fill="none" stroke="#000" stroke-width="1.5">
    <path d="m914.69279 186.28315c-5.3469-0.0643-8.35351-1.03635-11.04416-2.13279"/>
    <path d="m891.05109 189.27956c-5.3469-0.0643-8.35389-1.03673-11.04453-2.13317"/>
    <path d="m896.96117 188.53023c-5.34671-0.063-8.35334-1.03651-11.04427-2.1327"/>
    <path d="m902.87158 187.78119c-5.34658-0.063-8.35334-1.03651-11.04414-2.13272"/>
    <path d="m908.78209 187.03214c-5.34668-0.063-8.3533-1.03651-11.04424-2.1327"/>
   </g>
   <g fill="#f3ba03" stroke="#000" stroke-width="1.5">
    <path d="m906.81323 184.99773c-0.30236-1.85953-5.62129-6.0155-8.2269-2.64529 0.15497 4.25764 6.89878 3.98173 8.2269 2.64529z"/>
    <path d="m883.08498 188.00472c-0.30236-1.85953-5.62129-6.01587-8.22728-2.64491 0.15497 4.25764 6.89953 3.98173 8.22728 2.64491z"/>
    <path d="m900.88111 185.74951c-0.3011-1.85966-5.62158-6.01585-8.22716-2.64499l2e-5 1.3e-4c0.15318 4.2574 6.89922 3.98135 8.22714 2.64486"/>
    <path d="m894.94901 186.5013c-0.3011-1.85967-5.62157-6.01586-8.22715-2.64499-1.1e-4 1.4e-4 -1e-4 2.7e-4 -8e-5 4.1e-4 0.15354 4.25708 6.89931 3.98106 8.22723 2.64458"/>
    <path d="m889.01679 187.2531c-0.3011-1.85966-5.62157-6.01586-8.22715-2.64499 1e-5 1.3e-4 5e-5 3.9e-4 6e-5 5.2e-4 0.15365 4.25694 6.8993 3.98094 8.22709 2.64447"/>
    <path d="m907.0332 180.71893c-1.0594-1.5583-7.63994-3.07011-8.5731 1.08623 1.94079 3.79238 7.93549 0.68674 8.5731-1.08623z"/>
    <path d="m901.12315 181.46803c-1.05978-1.55792-7.63993-3.07011-8.57348 1.08623 1.94117 3.79238 7.93588 0.68674 8.57348-1.08623"/>
    <path d="m895.21311 182.21675c-1.05978-1.55792-7.63994-3.07011-8.57348 1.08699 1.94116 3.792 7.93587 0.68599 8.57348-1.08699"/>
    <path d="m889.30268 182.96623c-1.05978-1.5583-7.63956-3.07049-8.57348 1.08624l3.8e-4 7.5e-4c1.94116 3.79125 7.93549 0.68561 8.5731-1.08699"/>
    <path d="m883.39226 183.71496c-1.05978-1.5583-7.63994-3.07011-8.57348 1.08623 1.94116 3.79238 7.93587 0.68674 8.57348-1.08623z"/>
   </g>
   <g fill="#f5b900" stroke="#000" stroke-width="1.5">
    <path d="m790.56819 187.14601c-1.99559 1.55566-1.25745 1.46759 0.17008 2.83389 2.70047 2.58369 9.32258 7.3954 14.11162 13.91736 5.60769 7.63691 8.8475 14.30589 10.69304 16.97801 0.89726 1.29903 0.16252 1.54885 1.62898 0.29859 4.94475 1.52201-14.0606-30.7767-26.60485-34.02936z"/>
    <path d="m716.41008 242.83055c50.5183-25.68 90.16781-61.10854 109.42488-104.29833l1.76769 0.79559c-20.37506 47.23993-50.42343 69.3445-73.01669 88.11704-13.57229 11.27697-24.67767 15.74967-38.17588 15.3857z"/>
    <path d="m729.93361 259.80101c34.90885-22.48744 67.5137-40.41903 122.41776-102.44221l1.85613 1.59118c-27.22583 30.65273-54.02948 57.51345-77.70973 76.78942-17.01128 13.84743-25.71024 24.52233-46.56416 24.06161z"/>
    <path d="m876.74671 183.78715c-54.89877 17.29738-91.87653 53.51168-130.37291 88.12308 12.47131-0.61152 13.0919-1.89278 27.00019-14.3399 23.52831-21.05575 47.63376-53.52454 103.5496-71.30835"/>
    <path d="m790.56819 187.14601c-5.76794 4.49651-2.58519 11.37562 4.73688 21.34753 8.33386 11.34954 17.38167 16.49915 21.86797 12.68183-10.24176-1.64221-30.21316-25.94003-26.60485-34.02936z"/>
   </g>
  </g>
  <g transform="matrix(.9143723 0 0 .9143723 51.376613 83.485656)" stroke-width="6.23921" aria-label="KOMORÓ">
   <path d="m472.45809 982.51839 15.11303 18.91501q3.20003 3.9922 5.51293 5.4179 1.67922 1.0139 3.54855 1.0139v1.1723h-22.36855v-1.1723q2.12279-0.1901 2.72478-0.6654 0.63367-0.4752 0.63367-1.1723 0-1.3307-2.91488-5.0059l-9.85357-12.3883-1.58417 1.33071v11.72289q0 3.3585 0.3802 4.1822 0.3802 0.8238 1.45744 1.4258 1.07724 0.5703 3.4535 0.5703v1.1723h-21.67151v-1.1723h1.42576q1.86932 0 3.00993-0.6654 0.82377-0.4435 1.26734-1.5208 0.34852-0.7604 0.34852-3.9921v-28.26168q0-3.29508-0.34852-4.11885t-1.42576-1.42576q-1.04555-0.63367-2.85151-0.63367h-1.42576v-1.17229h21.38636v1.17229q-2.18616 0-3.32677 0.63367-0.82377 0.44357-1.29902 1.48913-0.3802 0.79208-0.3802 4.05548v13.37044l15.9368-12.89518q3.32676-2.6931 3.32676-4.30896 0-1.20397-1.36239-1.90101-0.69703-0.34852-3.4535-0.44357v-1.17229h16.76057v1.17229q-2.24953 0.15842-3.54855 0.82377-1.26734 0.63367-5.89313 4.37233z"/>
   <path d="m520.96552 965.47267q10.26546-0.3802 16.66552 5.98818 6.43175 6.36838 6.43175 15.9368 0 8.17434-4.78421 14.38435-6.33669 8.2377-17.90117 8.2377-11.59616 0-17.93286-7.8575-5.00599-6.21001-5.00599-14.73287 0-9.56842 6.49511-15.9368 6.5268-6.40006 16.03185-6.01986zm0.38021 2.02774q-5.89314 0-8.96643 6.01987-2.503 4.94262-2.503 14.1942 0 10.99418 3.86539 16.25362 2.69309 3.6753 7.54067 3.6753 3.2634 0 5.44956-1.5842 2.78815-2.0277 4.34064-6.46341 1.55249-4.46737 1.55249-11.62784 0-8.52286-1.58417-12.73677-1.58418-4.24558-4.05549-5.98818-2.43963-1.74259-5.63966-1.74259z"/>
   <path d="m577.29878 994.3997 11.65953-28.32505h17.48929v1.17229h-1.39408q-1.90101 0-3.04161 0.66536-0.79209 0.44357-1.26734 1.48912-0.34852 0.7604-0.34852 3.96044v28.32504q0 3.2951 0.34852 4.1189 0.34852 0.8237 1.42576 1.4574 1.07723 0.602 2.88319 0.602h1.39408v1.1723h-22.43192v-1.1723h1.39408q1.901 0 3.04161-0.6654 0.79209-0.4435 1.26734-1.5208 0.34852-0.7604 0.34852-3.9921v-31.84191l-16.47542 39.19251h-0.7604l-16.72889-38.90736v30.25776q0 3.1683 0.15842 3.8971 0.41188 1.5841 1.77427 2.598 1.39408 0.9822 4.34064 0.9822v1.1723h-14.70114v-1.1723h0.44357q1.42576 0.032 2.66141-0.4436 1.23566-0.5069 1.86933-1.3307t0.98219-2.3129q0.0634-0.3485 0.0634-3.2317v-27.18444q0-3.2634-0.34851-4.05549-0.34852-0.82377-1.42576-1.42576-1.07724-0.63367-2.8832-0.63367h-1.36239v-1.17229h17.55266z"/>
   <path d="m632.68153 965.47267q10.26546-0.3802 16.66552 5.98818 6.43175 6.36838 6.43175 15.9368 0 8.17434-4.7842 14.38435-6.3367 8.2377-17.90118 8.2377-11.59616 0-17.93286-7.8575-5.00599-6.21001-5.00599-14.73287 0-9.56842 6.49511-15.9368 6.52681-6.40006 16.03185-6.01986zm0.38021 2.02774q-5.89313 0-8.96643 6.01987-2.503 4.94262-2.503 14.1942 0 10.99418 3.86539 16.25362 2.69309 3.6753 7.54067 3.6753 3.2634 0 5.44956-1.5842 2.78815-2.0277 4.34064-6.46341 1.55249-4.46737 1.55249-11.62784 0-8.52286-1.58417-12.73677-1.58418-4.24558-4.05549-5.98818-2.43963-1.74259-5.63966-1.74259z"/>
   <path d="m675.32753 989.45707v12.03973q0 3.4852 0.41188 4.404 0.44357 0.8871 1.52081 1.4258 1.07724 0.5386 4.02381 0.5386v1.1723h-21.98835v-1.1723q2.97825 0 4.0238-0.5386 1.07724-0.5703 1.48913-1.4575 0.44357-0.8871 0.44357-4.3723v-27.88147q0-3.48519-0.44357-4.37233-0.41189-0.91882-1.48913-1.45744t-4.0238-0.53862v-1.17229h19.9606q7.79414 0 11.40606 1.07724t5.89313 3.99212q2.28121 2.8832 2.28121 6.78027 0 4.75253-3.42182 7.85751-2.18616 1.96438-6.11491 2.94656l10.32882 14.54275q2.02774 2.8198 2.8832 3.5168 1.29902 0.9822 3.00993 1.0773v1.1723h-13.52885l-13.84569-19.58043zm0-21.06952v18.82h1.80596q4.404 0 6.59016-0.79209 2.18617-0.82377 3.42182-2.91488 1.26734-2.1228 1.26734-5.51293 0-4.91094-2.31289-7.25552-2.28122-2.34458-7.38226-2.34458z"/>
   <path d="m730.01325 965.47267q10.26545-0.3802 16.66551 5.98818 6.43175 6.36838 6.43175 15.9368 0 8.17434-4.7842 14.38435-6.3367 8.2377-17.90118 8.2377-11.59616 0-17.93286-7.8575-5.00599-6.21001-5.00599-14.73287 0-9.56842 6.49512-15.9368 6.5268-6.40006 16.03185-6.01986zm0.3802 2.02774q-5.89313 0-8.96643 6.01987-2.503 4.94262-2.503 14.1942 0 10.99418 3.86539 16.25362 2.6931 3.6753 7.54067 3.6753 3.2634 0 5.44956-1.5842 2.78815-2.0277 4.34064-6.46341 1.55249-4.46737 1.55249-11.62784 0-8.52286-1.58417-12.73677-1.58418-4.24558-4.05549-5.98818-2.43963-1.74259-5.63966-1.74259zm9.47336-16.09522-10.48723 10.99418h-2.72479l3.67529-10.99418z"/>
  </g>
 </g>
</svg>
